<mxfile host="app.diagrams.net" agent="Mozilla/5.0 (Windows NT 10.0; Win64; x64) AppleWebKit/537.36 (KHTML, like Gecko) Chrome/131.0.0.0 Safari/537.36" version="26.0.4">
  <diagram name="Página-1" id="OOsOBSJ37qPy63uGSOQ0">
    <mxGraphModel dx="2232" dy="1093" grid="1" gridSize="10" guides="1" tooltips="1" connect="1" arrows="1" fold="1" page="1" pageScale="1" pageWidth="827" pageHeight="1169" math="0" shadow="0">
      <root>
        <mxCell id="0" />
        <mxCell id="1" parent="0" />
        <mxCell id="AYYR52LeX1VZabdRlzYv-2" style="edgeStyle=orthogonalEdgeStyle;rounded=0;orthogonalLoop=1;jettySize=auto;html=1;exitX=1;exitY=0.5;exitDx=0;exitDy=0;entryX=0;entryY=0.5;entryDx=0;entryDy=0;" edge="1" parent="1" source="O5rArWz0RRXLKf1uvHQ3-1" target="O5rArWz0RRXLKf1uvHQ3-2">
          <mxGeometry relative="1" as="geometry" />
        </mxCell>
        <mxCell id="O5rArWz0RRXLKf1uvHQ3-1" value="&lt;div&gt;FCT_T01v1&lt;/div&gt;&lt;div&gt;(Facturar cobranza de préstamo)&lt;/div&gt;" style="whiteSpace=wrap;html=1;aspect=fixed;fillColor=#dae8fc;strokeColor=#6c8ebf;fontColor=#6666FF;" parent="1" vertex="1">
          <mxGeometry x="630" y="516.25" width="100" height="100" as="geometry" />
        </mxCell>
        <mxCell id="AYYR52LeX1VZabdRlzYv-3" style="edgeStyle=orthogonalEdgeStyle;rounded=0;orthogonalLoop=1;jettySize=auto;html=1;exitX=1;exitY=0.5;exitDx=0;exitDy=0;entryX=0;entryY=0.5;entryDx=0;entryDy=0;" edge="1" parent="1" source="O5rArWz0RRXLKf1uvHQ3-2" target="O5rArWz0RRXLKf1uvHQ3-3">
          <mxGeometry relative="1" as="geometry" />
        </mxCell>
        <mxCell id="O5rArWz0RRXLKf1uvHQ3-2" value="&lt;div&gt;FCT_T07v1&lt;/div&gt;&lt;div&gt;(Validar comprobante B existente)&lt;/div&gt;" style="whiteSpace=wrap;html=1;aspect=fixed;fillColor=#dae8fc;strokeColor=#6c8ebf;labelBackgroundColor=none;labelBorderColor=none;fontColor=#6666FF;" parent="1" vertex="1">
          <mxGeometry x="761" y="516.25" width="100" height="100" as="geometry" />
        </mxCell>
        <mxCell id="AYYR52LeX1VZabdRlzYv-4" value="" style="edgeStyle=orthogonalEdgeStyle;rounded=0;orthogonalLoop=1;jettySize=auto;html=1;" edge="1" parent="1" source="O5rArWz0RRXLKf1uvHQ3-3" target="O5rArWz0RRXLKf1uvHQ3-4">
          <mxGeometry relative="1" as="geometry" />
        </mxCell>
        <mxCell id="O5rArWz0RRXLKf1uvHQ3-3" value="&lt;div&gt;FCT_T06v1&lt;/div&gt;&lt;div&gt;(Crear nota de crédito B, por monto total)&lt;/div&gt;" style="whiteSpace=wrap;html=1;aspect=fixed;fillColor=#dae8fc;strokeColor=#6c8ebf;fontColor=#6666FF;" parent="1" vertex="1">
          <mxGeometry x="885" y="516.25" width="100" height="100" as="geometry" />
        </mxCell>
        <mxCell id="AYYR52LeX1VZabdRlzYv-6" value="" style="edgeStyle=orthogonalEdgeStyle;rounded=0;orthogonalLoop=1;jettySize=auto;html=1;" edge="1" parent="1" source="O5rArWz0RRXLKf1uvHQ3-4" target="O5rArWz0RRXLKf1uvHQ3-8">
          <mxGeometry relative="1" as="geometry" />
        </mxCell>
        <mxCell id="O5rArWz0RRXLKf1uvHQ3-4" value="&lt;div&gt;&lt;span style=&quot;background-color: initial;&quot;&gt;FCT_T07v3&lt;/span&gt;&lt;/div&gt;&lt;div&gt;(Validar nota de crédito B existente, monto total)&lt;/div&gt;" style="whiteSpace=wrap;html=1;aspect=fixed;fillColor=#dae8fc;strokeColor=#6c8ebf;fontColor=#6666FF;" parent="1" vertex="1">
          <mxGeometry x="1011" y="516.25" width="100" height="100" as="geometry" />
        </mxCell>
        <mxCell id="AYYR52LeX1VZabdRlzYv-5" value="" style="edgeStyle=orthogonalEdgeStyle;rounded=0;orthogonalLoop=1;jettySize=auto;html=1;" edge="1" parent="1" source="O5rArWz0RRXLKf1uvHQ3-8" target="O5rArWz0RRXLKf1uvHQ3-9">
          <mxGeometry relative="1" as="geometry" />
        </mxCell>
        <mxCell id="O5rArWz0RRXLKf1uvHQ3-8" value="&lt;div&gt;FCT_T05v1&lt;/div&gt;&lt;div&gt;(Eliminar comprobante, con filtro de numero)&lt;/div&gt;" style="whiteSpace=wrap;html=1;aspect=fixed;fillColor=#dae8fc;strokeColor=#6c8ebf;fontColor=#6666FF;" parent="1" vertex="1">
          <mxGeometry x="1140" y="516.25" width="100" height="100" as="geometry" />
        </mxCell>
        <mxCell id="AYYR52LeX1VZabdRlzYv-8" value="" style="edgeStyle=orthogonalEdgeStyle;rounded=0;orthogonalLoop=1;jettySize=auto;html=1;" edge="1" parent="1" source="O5rArWz0RRXLKf1uvHQ3-9" target="O5rArWz0RRXLKf1uvHQ3-18">
          <mxGeometry relative="1" as="geometry" />
        </mxCell>
        <mxCell id="O5rArWz0RRXLKf1uvHQ3-9" value="&lt;div&gt;FCT_T07v6&lt;/div&gt;&lt;div&gt;(Validar comprobante eliminado)&lt;/div&gt;" style="whiteSpace=wrap;html=1;aspect=fixed;fillColor=#dae8fc;strokeColor=#6c8ebf;fontColor=#6666FF;" parent="1" vertex="1">
          <mxGeometry x="1270" y="516.25" width="100" height="100" as="geometry" />
        </mxCell>
        <mxCell id="AYYR52LeX1VZabdRlzYv-11" value="" style="edgeStyle=orthogonalEdgeStyle;rounded=0;orthogonalLoop=1;jettySize=auto;html=1;" edge="1" parent="1" source="O5rArWz0RRXLKf1uvHQ3-10" target="O5rArWz0RRXLKf1uvHQ3-11">
          <mxGeometry relative="1" as="geometry" />
        </mxCell>
        <mxCell id="O5rArWz0RRXLKf1uvHQ3-10" value="&lt;div&gt;FCT_T06v2&lt;/div&gt;&lt;div&gt;(Crear nota de crédito B, por monto especial/parcial)&lt;/div&gt;" style="whiteSpace=wrap;html=1;aspect=fixed;fillColor=#dae8fc;strokeColor=#6c8ebf;fontColor=#6666FF;" parent="1" vertex="1">
          <mxGeometry x="1270" y="640" width="100" height="100" as="geometry" />
        </mxCell>
        <mxCell id="AYYR52LeX1VZabdRlzYv-12" value="" style="edgeStyle=orthogonalEdgeStyle;rounded=0;orthogonalLoop=1;jettySize=auto;html=1;" edge="1" parent="1" source="O5rArWz0RRXLKf1uvHQ3-11" target="O5rArWz0RRXLKf1uvHQ3-25">
          <mxGeometry relative="1" as="geometry" />
        </mxCell>
        <mxCell id="O5rArWz0RRXLKf1uvHQ3-11" value="&lt;div&gt;FCT_T07v4&lt;/div&gt;&lt;div&gt;(Validar nota de crédito B existente, monto especial/parcial)&lt;/div&gt;" style="whiteSpace=wrap;html=1;aspect=fixed;fillColor=#dae8fc;strokeColor=#6c8ebf;fontColor=#6666FF;" parent="1" vertex="1">
          <mxGeometry x="1140" y="640" width="100" height="100" as="geometry" />
        </mxCell>
        <mxCell id="AYYR52LeX1VZabdRlzYv-15" value="" style="edgeStyle=orthogonalEdgeStyle;rounded=0;orthogonalLoop=1;jettySize=auto;html=1;" edge="1" parent="1" source="O5rArWz0RRXLKf1uvHQ3-15" target="O5rArWz0RRXLKf1uvHQ3-16">
          <mxGeometry relative="1" as="geometry" />
        </mxCell>
        <mxCell id="O5rArWz0RRXLKf1uvHQ3-15" value="&lt;div&gt;FCT_T02v1&lt;/div&gt;&lt;div&gt;(Facturación Excel de cobranza de préstamo)&lt;/div&gt;" style="whiteSpace=wrap;html=1;aspect=fixed;direction=west;flipV=1;flipH=1;fillColor=#dae8fc;strokeColor=#6c8ebf;fontColor=#6666FF;" parent="1" vertex="1">
          <mxGeometry x="760" y="640" width="100" height="100" as="geometry" />
        </mxCell>
        <mxCell id="O5rArWz0RRXLKf1uvHQ3-16" value="&lt;div&gt;&lt;font&gt;FCT_T07v5&lt;/font&gt;&lt;/div&gt;&lt;div&gt;&lt;font&gt;(Validar comprobante B creado contra archivo Excel)&lt;/font&gt;&lt;/div&gt;" style="whiteSpace=wrap;html=1;aspect=fixed;direction=west;flipV=1;flipH=1;fillColor=#dae8fc;strokeColor=#6c8ebf;fontColor=#6666FF;" parent="1" vertex="1">
          <mxGeometry x="630" y="640" width="100" height="100" as="geometry" />
        </mxCell>
        <mxCell id="AYYR52LeX1VZabdRlzYv-10" value="" style="edgeStyle=orthogonalEdgeStyle;rounded=0;orthogonalLoop=1;jettySize=auto;html=1;" edge="1" parent="1" source="O5rArWz0RRXLKf1uvHQ3-17" target="O5rArWz0RRXLKf1uvHQ3-10">
          <mxGeometry relative="1" as="geometry" />
        </mxCell>
        <mxCell id="O5rArWz0RRXLKf1uvHQ3-17" value="&lt;div&gt;FCT_T07v1&lt;/div&gt;&lt;div&gt;(Validar comprobante B existente)&lt;/div&gt;" style="whiteSpace=wrap;html=1;aspect=fixed;direction=west;flipV=1;flipH=1;fillColor=#dae8fc;strokeColor=#6c8ebf;fontColor=#6666FF;" parent="1" vertex="1">
          <mxGeometry x="1400" y="640" width="100" height="100" as="geometry" />
        </mxCell>
        <mxCell id="AYYR52LeX1VZabdRlzYv-9" value="" style="edgeStyle=orthogonalEdgeStyle;rounded=0;orthogonalLoop=1;jettySize=auto;html=1;" edge="1" parent="1" source="O5rArWz0RRXLKf1uvHQ3-18" target="O5rArWz0RRXLKf1uvHQ3-17">
          <mxGeometry relative="1" as="geometry" />
        </mxCell>
        <mxCell id="O5rArWz0RRXLKf1uvHQ3-18" value="FCT_T04v1&lt;br&gt;(Modificar fecha comprobante con filtro de numero)" style="whiteSpace=wrap;html=1;aspect=fixed;direction=west;flipV=1;flipH=1;fillColor=#dae8fc;strokeColor=#6c8ebf;fontColor=#6666FF;" parent="1" vertex="1">
          <mxGeometry x="1400" y="516.25" width="100" height="100" as="geometry" />
        </mxCell>
        <mxCell id="AYYR52LeX1VZabdRlzYv-13" value="" style="edgeStyle=orthogonalEdgeStyle;rounded=0;orthogonalLoop=1;jettySize=auto;html=1;" edge="1" parent="1" source="O5rArWz0RRXLKf1uvHQ3-25" target="O5rArWz0RRXLKf1uvHQ3-27">
          <mxGeometry relative="1" as="geometry" />
        </mxCell>
        <mxCell id="O5rArWz0RRXLKf1uvHQ3-25" value="FCT_T04v2&lt;br&gt;(Modificar comprobante con filtro de fecha)" style="whiteSpace=wrap;html=1;aspect=fixed;direction=west;flipV=1;flipH=1;fillColor=#dae8fc;strokeColor=#6c8ebf;fontColor=#6666FF;" parent="1" vertex="1">
          <mxGeometry x="1011" y="640" width="100" height="100" as="geometry" />
        </mxCell>
        <mxCell id="AYYR52LeX1VZabdRlzYv-14" value="" style="edgeStyle=orthogonalEdgeStyle;rounded=0;orthogonalLoop=1;jettySize=auto;html=1;" edge="1" parent="1" source="O5rArWz0RRXLKf1uvHQ3-27" target="O5rArWz0RRXLKf1uvHQ3-15">
          <mxGeometry relative="1" as="geometry" />
        </mxCell>
        <mxCell id="O5rArWz0RRXLKf1uvHQ3-27" value="&lt;div&gt;&lt;span style=&quot;background-color: initial;&quot;&gt;FCT_T07v3&lt;/span&gt;&lt;/div&gt;&lt;div&gt;(Validar nota de crédito B existente, monto total)&lt;/div&gt;" style="whiteSpace=wrap;html=1;aspect=fixed;fillColor=#dae8fc;strokeColor=#6c8ebf;labelBackgroundColor=none;labelBorderColor=none;fontColor=#6666FF;" parent="1" vertex="1">
          <mxGeometry x="885" y="640" width="100" height="100" as="geometry" />
        </mxCell>
        <mxCell id="Sxnl6FUewr3R2Q5X_RLo-11" style="edgeStyle=orthogonalEdgeStyle;rounded=0;orthogonalLoop=1;jettySize=auto;html=1;exitX=1;exitY=0.5;exitDx=0;exitDy=0;entryX=0;entryY=0.5;entryDx=0;entryDy=0;" parent="1" source="Sxnl6FUewr3R2Q5X_RLo-3" target="Sxnl6FUewr3R2Q5X_RLo-4" edge="1">
          <mxGeometry relative="1" as="geometry" />
        </mxCell>
        <mxCell id="Sxnl6FUewr3R2Q5X_RLo-3" value="&lt;div&gt;FCT_T03v1&lt;/div&gt;&lt;div&gt;(Facturar liquidación a comercio)&lt;/div&gt;" style="whiteSpace=wrap;html=1;aspect=fixed;fillColor=#dae8fc;strokeColor=#6c8ebf;fontColor=#6666FF;" parent="1" vertex="1">
          <mxGeometry x="630" y="180" width="100" height="100" as="geometry" />
        </mxCell>
        <mxCell id="Sxnl6FUewr3R2Q5X_RLo-12" style="edgeStyle=orthogonalEdgeStyle;rounded=0;orthogonalLoop=1;jettySize=auto;html=1;exitX=1;exitY=0.5;exitDx=0;exitDy=0;entryX=0;entryY=0.5;entryDx=0;entryDy=0;" parent="1" source="Sxnl6FUewr3R2Q5X_RLo-4" target="Sxnl6FUewr3R2Q5X_RLo-6" edge="1">
          <mxGeometry relative="1" as="geometry" />
        </mxCell>
        <mxCell id="Sxnl6FUewr3R2Q5X_RLo-4" value="&lt;div&gt;FCT_T07v2&lt;/div&gt;&lt;div&gt;(Validar comprobante A existente)&lt;/div&gt;" style="whiteSpace=wrap;html=1;aspect=fixed;fillColor=#dae8fc;strokeColor=#6c8ebf;labelBackgroundColor=none;labelBorderColor=none;fontColor=#6666FF;" parent="1" vertex="1">
          <mxGeometry x="761" y="180" width="100" height="100" as="geometry" />
        </mxCell>
        <mxCell id="Sxnl6FUewr3R2Q5X_RLo-14" value="" style="edgeStyle=orthogonalEdgeStyle;rounded=0;orthogonalLoop=1;jettySize=auto;html=1;" parent="1" source="Sxnl6FUewr3R2Q5X_RLo-6" target="Sxnl6FUewr3R2Q5X_RLo-7" edge="1">
          <mxGeometry relative="1" as="geometry" />
        </mxCell>
        <mxCell id="Sxnl6FUewr3R2Q5X_RLo-6" value="&lt;div&gt;FCT_T06v1&lt;/div&gt;&lt;div&gt;(Crear nota de crédito, por monto total)&lt;/div&gt;" style="whiteSpace=wrap;html=1;aspect=fixed;fillColor=#dae8fc;strokeColor=#6c8ebf;fontColor=#6666FF;" parent="1" vertex="1">
          <mxGeometry x="885" y="180" width="100" height="100" as="geometry" />
        </mxCell>
        <mxCell id="Sxnl6FUewr3R2Q5X_RLo-15" value="" style="edgeStyle=orthogonalEdgeStyle;rounded=0;orthogonalLoop=1;jettySize=auto;html=1;" parent="1" source="Sxnl6FUewr3R2Q5X_RLo-7" target="Sxnl6FUewr3R2Q5X_RLo-8" edge="1">
          <mxGeometry relative="1" as="geometry" />
        </mxCell>
        <mxCell id="Sxnl6FUewr3R2Q5X_RLo-7" value="&lt;div&gt;&lt;span style=&quot;background-color: initial;&quot;&gt;FCT_T07v5&lt;/span&gt;&lt;/div&gt;&lt;div&gt;(Validar nota de crédito existente, monto total)&lt;/div&gt;" style="whiteSpace=wrap;html=1;aspect=fixed;fillColor=#dae8fc;strokeColor=#6c8ebf;fontColor=#6666FF;" parent="1" vertex="1">
          <mxGeometry x="1011" y="180" width="100" height="100" as="geometry" />
        </mxCell>
        <mxCell id="Sxnl6FUewr3R2Q5X_RLo-17" value="" style="edgeStyle=orthogonalEdgeStyle;rounded=0;orthogonalLoop=1;jettySize=auto;html=1;" parent="1" source="Sxnl6FUewr3R2Q5X_RLo-8" edge="1">
          <mxGeometry relative="1" as="geometry">
            <mxPoint x="1270" y="230" as="targetPoint" />
          </mxGeometry>
        </mxCell>
        <mxCell id="Sxnl6FUewr3R2Q5X_RLo-8" value="&lt;div&gt;FCT_T02v2&lt;/div&gt;&lt;div&gt;(Facturación Excel de liquidación a comercio)&lt;/div&gt;" style="whiteSpace=wrap;html=1;aspect=fixed;direction=west;flipV=1;flipH=1;fillColor=#dae8fc;strokeColor=#6c8ebf;fontColor=#6666FF;" parent="1" vertex="1">
          <mxGeometry x="1140" y="180" width="100" height="100" as="geometry" />
        </mxCell>
        <mxCell id="Sxnl6FUewr3R2Q5X_RLo-10" value="&lt;div&gt;&lt;font&gt;FCT_T07v2&lt;/font&gt;&lt;/div&gt;&lt;div&gt;(Validar comprobante A existente)&lt;/div&gt;" style="whiteSpace=wrap;html=1;aspect=fixed;direction=west;flipV=1;flipH=1;fillColor=#dae8fc;strokeColor=#6c8ebf;fontColor=#6666FF;" parent="1" vertex="1">
          <mxGeometry x="1270" y="180" width="100" height="100" as="geometry" />
        </mxCell>
        <mxCell id="Sxnl6FUewr3R2Q5X_RLo-21" style="edgeStyle=orthogonalEdgeStyle;rounded=0;orthogonalLoop=1;jettySize=auto;html=1;exitX=1;exitY=0.5;exitDx=0;exitDy=0;entryX=0;entryY=0.5;entryDx=0;entryDy=0;" parent="1" source="Sxnl6FUewr3R2Q5X_RLo-18" target="Sxnl6FUewr3R2Q5X_RLo-19" edge="1">
          <mxGeometry relative="1" as="geometry" />
        </mxCell>
        <mxCell id="Sxnl6FUewr3R2Q5X_RLo-18" value="FACTURACION TEST STARTS" style="ellipse;whiteSpace=wrap;html=1;" parent="1" vertex="1">
          <mxGeometry x="110" y="342.5" width="160" height="110" as="geometry" />
        </mxCell>
        <mxCell id="Sxnl6FUewr3R2Q5X_RLo-26" style="edgeStyle=orthogonalEdgeStyle;rounded=0;orthogonalLoop=1;jettySize=auto;html=1;exitX=0.5;exitY=1;exitDx=0;exitDy=0;entryX=0.5;entryY=0;entryDx=0;entryDy=0;" parent="1" source="Sxnl6FUewr3R2Q5X_RLo-19" target="Sxnl6FUewr3R2Q5X_RLo-25" edge="1">
          <mxGeometry relative="1" as="geometry" />
        </mxCell>
        <mxCell id="Sxnl6FUewr3R2Q5X_RLo-28" style="edgeStyle=orthogonalEdgeStyle;rounded=0;orthogonalLoop=1;jettySize=auto;html=1;exitX=0.5;exitY=0;exitDx=0;exitDy=0;entryX=0.5;entryY=1;entryDx=0;entryDy=0;" parent="1" source="Sxnl6FUewr3R2Q5X_RLo-19" target="Sxnl6FUewr3R2Q5X_RLo-24" edge="1">
          <mxGeometry relative="1" as="geometry" />
        </mxCell>
        <mxCell id="Sxnl6FUewr3R2Q5X_RLo-19" value="CONCEPTO A FACTURAR" style="rhombus;whiteSpace=wrap;html=1;" parent="1" vertex="1">
          <mxGeometry x="340" y="340" width="220" height="115" as="geometry" />
        </mxCell>
        <mxCell id="Sxnl6FUewr3R2Q5X_RLo-29" style="edgeStyle=orthogonalEdgeStyle;rounded=0;orthogonalLoop=1;jettySize=auto;html=1;exitX=1;exitY=0.5;exitDx=0;exitDy=0;entryX=0;entryY=0.5;entryDx=0;entryDy=0;" parent="1" source="Sxnl6FUewr3R2Q5X_RLo-24" target="Sxnl6FUewr3R2Q5X_RLo-3" edge="1">
          <mxGeometry relative="1" as="geometry" />
        </mxCell>
        <mxCell id="Sxnl6FUewr3R2Q5X_RLo-24" value="LIQUIDACION" style="ellipse;whiteSpace=wrap;html=1;aspect=fixed;" parent="1" vertex="1">
          <mxGeometry x="406.25" y="186.25" width="87.5" height="87.5" as="geometry" />
        </mxCell>
        <mxCell id="Sxnl6FUewr3R2Q5X_RLo-27" style="edgeStyle=orthogonalEdgeStyle;rounded=0;orthogonalLoop=1;jettySize=auto;html=1;exitX=1;exitY=0.5;exitDx=0;exitDy=0;entryX=0;entryY=0.5;entryDx=0;entryDy=0;" parent="1" source="Sxnl6FUewr3R2Q5X_RLo-25" target="O5rArWz0RRXLKf1uvHQ3-1" edge="1">
          <mxGeometry relative="1" as="geometry">
            <mxPoint x="630" y="567.5" as="targetPoint" />
          </mxGeometry>
        </mxCell>
        <mxCell id="Sxnl6FUewr3R2Q5X_RLo-25" value="COBRANZA" style="ellipse;whiteSpace=wrap;html=1;aspect=fixed;" parent="1" vertex="1">
          <mxGeometry x="406.25" y="522.5" width="87.5" height="87.5" as="geometry" />
        </mxCell>
      </root>
    </mxGraphModel>
  </diagram>
</mxfile>
